<mxfile host="app.diagrams.net" modified="2024-06-24T15:49:58.264Z" agent="Mozilla/5.0 (Windows NT 10.0; Win64; x64) AppleWebKit/537.36 (KHTML, like Gecko) Chrome/126.0.0.0 Safari/537.36" etag="5hOV1GAIL6YSxZyMmWjq" version="24.6.2" type="github">
  <diagram name="Page-1" id="52a04d89-c75d-2922-d76d-85b35f80e030">
    <mxGraphModel dx="1434" dy="780" grid="1" gridSize="10" guides="1" tooltips="1" connect="1" arrows="1" fold="1" page="1" pageScale="1" pageWidth="1100" pageHeight="850" background="none" math="0" shadow="0">
      <root>
        <mxCell id="0" />
        <mxCell id="1" parent="0" />
        <mxCell id="ZBO8loJ-oKRG1bA3Xq92-22" value="карта обработки заказов" style="swimlane;childLayout=stackLayout;resizeParent=1;resizeParentMax=0;horizontal=1;startSize=20;horizontalStack=0;html=1;" vertex="1" parent="1">
          <mxGeometry x="30" y="35" width="2000" height="525" as="geometry" />
        </mxCell>
        <mxCell id="ZBO8loJ-oKRG1bA3Xq92-23" value="ОТДЕЛ ПРОВЕРКИ" style="swimlane;startSize=20;horizontal=0;html=1;" vertex="1" parent="ZBO8loJ-oKRG1bA3Xq92-22">
          <mxGeometry y="20" width="2000" height="140" as="geometry" />
        </mxCell>
        <mxCell id="ZBO8loJ-oKRG1bA3Xq92-1" value="заказ поступил&lt;div&gt;в TSOFT&lt;/div&gt;" style="rounded=1;whiteSpace=wrap;html=1;" vertex="1" parent="ZBO8loJ-oKRG1bA3Xq92-23">
          <mxGeometry x="30" y="45" width="120" height="60" as="geometry" />
        </mxCell>
        <mxCell id="ZBO8loJ-oKRG1bA3Xq92-81" value="" style="edgeStyle=orthogonalEdgeStyle;rounded=0;orthogonalLoop=1;jettySize=auto;html=1;" edge="1" parent="ZBO8loJ-oKRG1bA3Xq92-23" source="ZBO8loJ-oKRG1bA3Xq92-26" target="ZBO8loJ-oKRG1bA3Xq92-80">
          <mxGeometry relative="1" as="geometry" />
        </mxCell>
        <mxCell id="ZBO8loJ-oKRG1bA3Xq92-26" value="САПФИР" style="shape=parallelogram;perimeter=parallelogramPerimeter;whiteSpace=wrap;html=1;fixedSize=1;" vertex="1" parent="ZBO8loJ-oKRG1bA3Xq92-23">
          <mxGeometry x="180" y="45" width="120" height="60" as="geometry" />
        </mxCell>
        <mxCell id="ZBO8loJ-oKRG1bA3Xq92-6" value="" style="edgeStyle=orthogonalEdgeStyle;rounded=0;orthogonalLoop=1;jettySize=auto;html=1;entryX=0;entryY=0.5;entryDx=0;entryDy=0;" edge="1" parent="ZBO8loJ-oKRG1bA3Xq92-23" source="ZBO8loJ-oKRG1bA3Xq92-1" target="ZBO8loJ-oKRG1bA3Xq92-26">
          <mxGeometry relative="1" as="geometry" />
        </mxCell>
        <mxCell id="ZBO8loJ-oKRG1bA3Xq92-29" style="edgeStyle=orthogonalEdgeStyle;rounded=0;orthogonalLoop=1;jettySize=auto;html=1;entryX=0;entryY=0.5;entryDx=0;entryDy=0;exitX=1;exitY=0.5;exitDx=0;exitDy=0;" edge="1" parent="ZBO8loJ-oKRG1bA3Xq92-23" source="ZBO8loJ-oKRG1bA3Xq92-80" target="ZBO8loJ-oKRG1bA3Xq92-28">
          <mxGeometry relative="1" as="geometry">
            <mxPoint x="445" y="60" as="sourcePoint" />
          </mxGeometry>
        </mxCell>
        <mxCell id="ZBO8loJ-oKRG1bA3Xq92-30" value="ДА" style="edgeLabel;html=1;align=center;verticalAlign=middle;resizable=0;points=[];" vertex="1" connectable="0" parent="ZBO8loJ-oKRG1bA3Xq92-29">
          <mxGeometry x="-0.5714" y="-1" relative="1" as="geometry">
            <mxPoint as="offset" />
          </mxGeometry>
        </mxCell>
        <mxCell id="ZBO8loJ-oKRG1bA3Xq92-32" style="edgeStyle=orthogonalEdgeStyle;rounded=0;orthogonalLoop=1;jettySize=auto;html=1;entryX=0;entryY=0.5;entryDx=0;entryDy=0;" edge="1" parent="ZBO8loJ-oKRG1bA3Xq92-23" source="ZBO8loJ-oKRG1bA3Xq92-28" target="ZBO8loJ-oKRG1bA3Xq92-31">
          <mxGeometry relative="1" as="geometry" />
        </mxCell>
        <mxCell id="ZBO8loJ-oKRG1bA3Xq92-28" value="ПОИСК&amp;nbsp;&lt;div&gt;ПЛАТНИКОВ&lt;/div&gt;" style="shape=parallelogram;perimeter=parallelogramPerimeter;whiteSpace=wrap;html=1;fixedSize=1;" vertex="1" parent="ZBO8loJ-oKRG1bA3Xq92-23">
          <mxGeometry x="500" y="45" width="120" height="60" as="geometry" />
        </mxCell>
        <mxCell id="ZBO8loJ-oKRG1bA3Xq92-31" value="найден?" style="rhombus;whiteSpace=wrap;html=1;" vertex="1" parent="ZBO8loJ-oKRG1bA3Xq92-23">
          <mxGeometry x="640" y="35" width="80" height="80" as="geometry" />
        </mxCell>
        <mxCell id="ZBO8loJ-oKRG1bA3Xq92-33" value="отправка&lt;div&gt;квитанции&lt;/div&gt;&lt;div&gt;физ.лицу&lt;/div&gt;" style="shape=parallelogram;perimeter=parallelogramPerimeter;whiteSpace=wrap;html=1;fixedSize=1;" vertex="1" parent="ZBO8loJ-oKRG1bA3Xq92-23">
          <mxGeometry x="770" y="45" width="120" height="60" as="geometry" />
        </mxCell>
        <mxCell id="ZBO8loJ-oKRG1bA3Xq92-34" style="edgeStyle=orthogonalEdgeStyle;rounded=0;orthogonalLoop=1;jettySize=auto;html=1;entryX=0;entryY=0.5;entryDx=0;entryDy=0;" edge="1" parent="ZBO8loJ-oKRG1bA3Xq92-23" source="ZBO8loJ-oKRG1bA3Xq92-31" target="ZBO8loJ-oKRG1bA3Xq92-33">
          <mxGeometry relative="1" as="geometry" />
        </mxCell>
        <mxCell id="ZBO8loJ-oKRG1bA3Xq92-89" value="ДА" style="edgeLabel;html=1;align=center;verticalAlign=middle;resizable=0;points=[];" vertex="1" connectable="0" parent="ZBO8loJ-oKRG1bA3Xq92-34">
          <mxGeometry x="-0.1333" y="1" relative="1" as="geometry">
            <mxPoint as="offset" />
          </mxGeometry>
        </mxCell>
        <mxCell id="ZBO8loJ-oKRG1bA3Xq92-80" value="пройдена&lt;div&gt;проверка&lt;/div&gt;&lt;div&gt;МВД?&lt;/div&gt;" style="rhombus;whiteSpace=wrap;html=1;" vertex="1" parent="ZBO8loJ-oKRG1bA3Xq92-23">
          <mxGeometry x="340" y="15" width="120" height="120" as="geometry" />
        </mxCell>
        <mxCell id="ZBO8loJ-oKRG1bA3Xq92-24" value="КЦ" style="swimlane;startSize=20;horizontal=0;html=1;" vertex="1" parent="ZBO8loJ-oKRG1bA3Xq92-22">
          <mxGeometry y="160" width="2000" height="175" as="geometry" />
        </mxCell>
        <mxCell id="ZBO8loJ-oKRG1bA3Xq92-45" value="" style="edgeStyle=orthogonalEdgeStyle;rounded=0;orthogonalLoop=1;jettySize=auto;html=1;" edge="1" parent="ZBO8loJ-oKRG1bA3Xq92-24" source="ZBO8loJ-oKRG1bA3Xq92-35" target="ZBO8loJ-oKRG1bA3Xq92-40">
          <mxGeometry relative="1" as="geometry" />
        </mxCell>
        <mxCell id="ZBO8loJ-oKRG1bA3Xq92-35" value="сбор&lt;div&gt;пошлины&lt;/div&gt;" style="rounded=0;whiteSpace=wrap;html=1;" vertex="1" parent="ZBO8loJ-oKRG1bA3Xq92-24">
          <mxGeometry x="770" y="35" width="120" height="60" as="geometry" />
        </mxCell>
        <mxCell id="ZBO8loJ-oKRG1bA3Xq92-40" value="оплатил?" style="rhombus;whiteSpace=wrap;html=1;" vertex="1" parent="ZBO8loJ-oKRG1bA3Xq92-24">
          <mxGeometry x="920" y="25" width="80" height="80" as="geometry" />
        </mxCell>
        <mxCell id="ZBO8loJ-oKRG1bA3Xq92-54" value="проставление&lt;div&gt;отказного&amp;nbsp;&lt;/div&gt;&lt;div&gt;статуса&lt;/div&gt;" style="shape=parallelogram;perimeter=parallelogramPerimeter;whiteSpace=wrap;html=1;fixedSize=1;" vertex="1" parent="ZBO8loJ-oKRG1bA3Xq92-24">
          <mxGeometry x="1340" y="10" width="120" height="60" as="geometry" />
        </mxCell>
        <mxCell id="ZBO8loJ-oKRG1bA3Xq92-68" value="" style="edgeStyle=orthogonalEdgeStyle;rounded=0;orthogonalLoop=1;jettySize=auto;html=1;" edge="1" parent="ZBO8loJ-oKRG1bA3Xq92-24" source="ZBO8loJ-oKRG1bA3Xq92-40" target="ZBO8loJ-oKRG1bA3Xq92-52">
          <mxGeometry relative="1" as="geometry">
            <mxPoint x="1030" y="240" as="sourcePoint" />
            <mxPoint x="1140" y="235" as="targetPoint" />
          </mxGeometry>
        </mxCell>
        <mxCell id="ZBO8loJ-oKRG1bA3Xq92-69" value="НЕТ" style="edgeLabel;html=1;align=center;verticalAlign=middle;resizable=0;points=[];" vertex="1" connectable="0" parent="ZBO8loJ-oKRG1bA3Xq92-68">
          <mxGeometry x="-0.5714" relative="1" as="geometry">
            <mxPoint x="15" as="offset" />
          </mxGeometry>
        </mxCell>
        <mxCell id="ZBO8loJ-oKRG1bA3Xq92-52" value="прошло&lt;div&gt;более 6ч?&lt;/div&gt;" style="rhombus;whiteSpace=wrap;html=1;" vertex="1" parent="ZBO8loJ-oKRG1bA3Xq92-24">
          <mxGeometry x="1060" y="12.5" width="105" height="105" as="geometry" />
        </mxCell>
        <mxCell id="ZBO8loJ-oKRG1bA3Xq92-79" value="" style="edgeStyle=orthogonalEdgeStyle;rounded=0;orthogonalLoop=1;jettySize=auto;html=1;" edge="1" parent="ZBO8loJ-oKRG1bA3Xq92-24" source="ZBO8loJ-oKRG1bA3Xq92-76" target="ZBO8loJ-oKRG1bA3Xq92-78">
          <mxGeometry relative="1" as="geometry" />
        </mxCell>
        <mxCell id="ZBO8loJ-oKRG1bA3Xq92-76" value="сбор ПД" style="shape=parallelogram;perimeter=parallelogramPerimeter;whiteSpace=wrap;html=1;fixedSize=1;" vertex="1" parent="ZBO8loJ-oKRG1bA3Xq92-24">
          <mxGeometry x="340" y="45" width="120" height="60" as="geometry" />
        </mxCell>
        <mxCell id="ZBO8loJ-oKRG1bA3Xq92-84" value="" style="edgeStyle=orthogonalEdgeStyle;rounded=0;orthogonalLoop=1;jettySize=auto;html=1;" edge="1" parent="ZBO8loJ-oKRG1bA3Xq92-24" source="ZBO8loJ-oKRG1bA3Xq92-78" target="ZBO8loJ-oKRG1bA3Xq92-83">
          <mxGeometry relative="1" as="geometry" />
        </mxCell>
        <mxCell id="ZBO8loJ-oKRG1bA3Xq92-85" value="ДА" style="edgeLabel;html=1;align=center;verticalAlign=middle;resizable=0;points=[];" vertex="1" connectable="0" parent="ZBO8loJ-oKRG1bA3Xq92-84">
          <mxGeometry x="0.0154" y="1" relative="1" as="geometry">
            <mxPoint as="offset" />
          </mxGeometry>
        </mxCell>
        <mxCell id="ZBO8loJ-oKRG1bA3Xq92-78" value="пд&lt;div&gt;собраны?&lt;/div&gt;" style="rhombus;whiteSpace=wrap;html=1;" vertex="1" parent="ZBO8loJ-oKRG1bA3Xq92-24">
          <mxGeometry x="490" y="35" width="80" height="80" as="geometry" />
        </mxCell>
        <mxCell id="ZBO8loJ-oKRG1bA3Xq92-83" value="партия&lt;div&gt;сдана&lt;/div&gt;&lt;div&gt;в набор?&lt;/div&gt;" style="rhombus;whiteSpace=wrap;html=1;" vertex="1" parent="ZBO8loJ-oKRG1bA3Xq92-24">
          <mxGeometry x="635" y="22.5" width="105" height="105" as="geometry" />
        </mxCell>
        <mxCell id="ZBO8loJ-oKRG1bA3Xq92-25" value="ДЕКЛАРАНТЫ" style="swimlane;startSize=20;horizontal=0;html=1;" vertex="1" parent="ZBO8loJ-oKRG1bA3Xq92-22">
          <mxGeometry y="335" width="2000" height="190" as="geometry" />
        </mxCell>
        <mxCell id="ZBO8loJ-oKRG1bA3Xq92-90" value="ЗАКАЗ ПОДАН&lt;div&gt;НА ТО&lt;/div&gt;" style="shape=parallelogram;perimeter=parallelogramPerimeter;whiteSpace=wrap;html=1;fixedSize=1;" vertex="1" parent="ZBO8loJ-oKRG1bA3Xq92-25">
          <mxGeometry x="900" y="30" width="120" height="60" as="geometry" />
        </mxCell>
        <mxCell id="ZBO8loJ-oKRG1bA3Xq92-36" style="edgeStyle=orthogonalEdgeStyle;rounded=0;orthogonalLoop=1;jettySize=auto;html=1;entryX=0.5;entryY=0;entryDx=0;entryDy=0;" edge="1" parent="ZBO8loJ-oKRG1bA3Xq92-22" source="ZBO8loJ-oKRG1bA3Xq92-33" target="ZBO8loJ-oKRG1bA3Xq92-35">
          <mxGeometry relative="1" as="geometry" />
        </mxCell>
        <mxCell id="ZBO8loJ-oKRG1bA3Xq92-77" value="" style="edgeStyle=orthogonalEdgeStyle;rounded=0;orthogonalLoop=1;jettySize=auto;html=1;exitX=0.5;exitY=1;exitDx=0;exitDy=0;" edge="1" parent="ZBO8loJ-oKRG1bA3Xq92-22" source="ZBO8loJ-oKRG1bA3Xq92-80" target="ZBO8loJ-oKRG1bA3Xq92-76">
          <mxGeometry relative="1" as="geometry">
            <mxPoint x="387.5" y="137.5" as="sourcePoint" />
          </mxGeometry>
        </mxCell>
        <mxCell id="ZBO8loJ-oKRG1bA3Xq92-82" value="НЕТ" style="edgeLabel;html=1;align=center;verticalAlign=middle;resizable=0;points=[];" vertex="1" connectable="0" parent="ZBO8loJ-oKRG1bA3Xq92-77">
          <mxGeometry x="-0.16" y="1" relative="1" as="geometry">
            <mxPoint as="offset" />
          </mxGeometry>
        </mxCell>
        <mxCell id="ZBO8loJ-oKRG1bA3Xq92-91" value="" style="edgeStyle=orthogonalEdgeStyle;rounded=0;orthogonalLoop=1;jettySize=auto;html=1;" edge="1" parent="ZBO8loJ-oKRG1bA3Xq92-22" source="ZBO8loJ-oKRG1bA3Xq92-40" target="ZBO8loJ-oKRG1bA3Xq92-90">
          <mxGeometry relative="1" as="geometry" />
        </mxCell>
        <mxCell id="ZBO8loJ-oKRG1bA3Xq92-92" value="ДА" style="edgeLabel;html=1;align=center;verticalAlign=middle;resizable=0;points=[];" vertex="1" connectable="0" parent="ZBO8loJ-oKRG1bA3Xq92-91">
          <mxGeometry x="-0.1889" y="2" relative="1" as="geometry">
            <mxPoint as="offset" />
          </mxGeometry>
        </mxCell>
        <mxCell id="ZBO8loJ-oKRG1bA3Xq92-37" value="&lt;span style=&quot;font-style: italic;&quot;&gt;&lt;font style=&quot;font-size: 10px;&quot;&gt;Текст уведомления: ваш заказ прохдит там. оформление в нашей компании, просьба оплатить квитанцию, в случае если вы не согласны с ее расчетом, просьба подгрузить скрины заказа в ЛК&lt;/font&gt;&lt;/span&gt;" style="ellipse;shape=cloud;whiteSpace=wrap;html=1;" vertex="1" parent="1">
          <mxGeometry x="1770" y="82.5" width="230" height="205" as="geometry" />
        </mxCell>
        <mxCell id="ZBO8loJ-oKRG1bA3Xq92-38" style="edgeStyle=orthogonalEdgeStyle;rounded=0;orthogonalLoop=1;jettySize=auto;html=1;exitX=0.75;exitY=0;exitDx=0;exitDy=0;curved=1;dashed=1;fillColor=#d5e8d4;strokeColor=#82b366;" edge="1" parent="1" source="ZBO8loJ-oKRG1bA3Xq92-35" target="ZBO8loJ-oKRG1bA3Xq92-37">
          <mxGeometry relative="1" as="geometry" />
        </mxCell>
        <mxCell id="ZBO8loJ-oKRG1bA3Xq92-39" value="уходит СМС" style="edgeLabel;html=1;align=center;verticalAlign=middle;resizable=0;points=[];rotation=-30;" vertex="1" connectable="0" parent="ZBO8loJ-oKRG1bA3Xq92-38">
          <mxGeometry x="0.6855" y="23" relative="1" as="geometry">
            <mxPoint x="-32" as="offset" />
          </mxGeometry>
        </mxCell>
      </root>
    </mxGraphModel>
  </diagram>
</mxfile>
